<svg width="70" height="70" viewBox="0 0 70 70" fill="none" xmlns="http://www.w3.org/2000/svg">
<path d="M5.96583 0L19.2848 6.73174C19.2848 6.73174 18.3847 8.11837 17.9257 9.05303C17.4065 10.1105 16.8385 11.8386 16.8385 11.8386L16.1789 14.6241C16.1789 14.6241 16.023 15.6653 16.023 16.4812C16.023 17.2064 15.9855 17.6137 16.023 18.3382C16.0701 19.2483 16.3133 19.7745 16.5666 20.6595C16.782 21.4118 16.7681 21.7992 17.1103 22.5165C17.5942 23.5309 17.8841 24.0952 18.4693 25.0699C19.1422 26.1906 19.4959 26.8425 20.3721 27.8555C21.0425 28.6306 21.4955 29.0155 22.2748 29.7125C22.6894 30.0834 22.916 30.2977 23.362 30.641C23.8669 31.0296 24.7211 31.5695 24.7211 31.5695H21.0716L19.8284 31.3374L17.9257 30.8731L15.7512 30.1768C15.7512 30.1768 15.8671 30.1768 13.5767 29.2482C11.2862 28.3197 10.0431 27.3912 10.0431 27.3912C10.0431 27.3912 8.52753 25.9949 7.59673 25.0699C6.61341 24.0928 5.15039 22.5165 5.15039 22.5165C5.15039 22.5165 4.21591 21.1526 3.79131 20.4273C3.36671 19.7021 2.43223 17.8739 1.8886 16.249C1.34497 14.6241 1.34497 13.6956 1.34497 11.8386C1.34497 9.98154 1.8886 7.66025 1.8886 7.66025L2.70405 5.33897L3.79131 3.2498L4.87857 1.39277L5.96583 0Z" fill="#F6D726"/>
<path d="M24.335 15.4421C24.335 13.0231 26.6097 11.2491 28.9558 11.8384L70 31.8015H24.335V15.4421Z" fill="#3955A5"/>
<path d="M0 69.363C0 49.9747 15.7612 34.2806 35.1493 34.3633L69.906 34.5116L31.7448 53.896L0 69.9999V69.363Z" fill="#CB3628"/>
</svg>
